<?xml version="1.0" encoding="UTF-8" standalone="no"?>
<!-- Created with Inkscape (http://www.inkscape.org/) -->

<svg
   version="1.1"
   id="svg1"
   width="254.66667"
   height="302.66666"
   viewBox="0 0 254.66667 302.66666"
   sodipodi:docname="ColdRay Logo.eps"
   xmlns:inkscape="http://www.inkscape.org/namespaces/inkscape"
   xmlns:sodipodi="http://sodipodi.sourceforge.net/DTD/sodipodi-0.dtd"
   xmlns="http://www.w3.org/2000/svg"
   xmlns:svg="http://www.w3.org/2000/svg">
  <defs
     id="defs1">
    <linearGradient
       x1="439.83801"
       y1="506.64899"
       x2="471.53601"
       y2="429.65799"
       gradientUnits="userSpaceOnUse"
       gradientTransform="matrix(10,0,0,10,-3339.85,-3357.98)"
       spreadMethod="pad"
       id="linearGradient2">
      <stop
         style="stop-opacity:1;stop-color:#432582"
         offset="0"
         id="stop1" />
      <stop
         style="stop-opacity:1;stop-color:#8951ae"
         offset="1"
         id="stop2" />
    </linearGradient>
    <clipPath
       clipPathUnits="userSpaceOnUse"
       id="clipPath2">
      <path
         d="m 1343.17,1599.46 c 169.37,-162.53 284.71,-444.07 101.96,-975.397 91.57,211.074 139.23,410.087 139.23,557.777 0.03,416.57 -290.76,582.55 -489.17,623.01 48.44,-17.3 92.7,-41.63 132.75,-73 47.33,-37.09 85.74,-81.22 115.23,-132.39 z"
         transform="translate(0,2.5000001e-5)"
         clip-rule="evenodd"
         id="path2" />
    </clipPath>
    <linearGradient
       x1="369.44199"
       y1="443.82199"
       x2="353.31201"
       y2="519.229"
       gradientUnits="userSpaceOnUse"
       gradientTransform="matrix(10,0,0,10,-3339.85,-3357.98)"
       spreadMethod="pad"
       id="linearGradient4">
      <stop
         style="stop-opacity:1;stop-color:#432582"
         offset="0"
         id="stop3" />
      <stop
         style="stop-opacity:1;stop-color:#8951ae"
         offset="1"
         id="stop4" />
    </linearGradient>
    <clipPath
       clipPathUnits="userSpaceOnUse"
       id="clipPath4">
      <path
         d="m 426.184,1054 c -162.801,154.25 -331.852,427.74 -152.282,828.97 -2.808,-3.9 -9.011,-17.06 -11.363,-21.23 -24.98,-46.43 -43.351,-84.44 -58.476,-131.08 -105.5083,-269.61 -21.145,-558.8 192.121,-743.379 80.597,-69.75 158.777,-118.847 207.504,-142.59 l 17.703,-6.089 c 0.996,-0.442 -142.68,115.019 -181.621,187.988 -4.786,9 -9.329,18.13 -13.586,27.41 z"
         transform="translate(0,2.5000001e-5)"
         clip-rule="evenodd"
         id="path4" />
    </clipPath>
    <linearGradient
       x1="525.10797"
       y1="478.51199"
       x2="326.70999"
       y2="483.39001"
       gradientUnits="userSpaceOnUse"
       gradientTransform="matrix(10,0,0,10,-3339.85,-3357.98)"
       spreadMethod="pad"
       id="linearGradient6">
      <stop
         style="stop-opacity:1;stop-color:#9761b7"
         offset="0"
         id="stop5" />
      <stop
         style="stop-opacity:1;stop-color:#4c2382"
         offset="1"
         id="stop6" />
    </linearGradient>
    <clipPath
       clipPathUnits="userSpaceOnUse"
       id="clipPath6">
      <path
         d="m 1445.09,623.066 c 87.52,222.36 132.98,409.474 132.98,557.514 0.02,416.57 -281.95,568.72 -482.88,624.27 -59.55,21.28 -125.417,31.89 -197.62,31.89 -103.172,0 -194.433,-22.56 -273.781,-67.69 -79.379,-45.16 -140.625,-108.15 -183.793,-188.98 -43.133,-80.87 -64.715,-172.88 -64.715,-276.05 0,-104.17 21.582,-196.67 64.715,-277.52 43.145,-80.848 104.363,-143.785 183.695,-188.918 -0.257,0.113 -1.043,0.453 -2.3,1.02 1.117,-0.516 1.82,-0.809 2.066,-0.922 -79.324,45.133 -140.543,108.074 -183.687,188.91 -4.786,9 -9.329,18.13 -13.586,27.41 -168.403,152.51 -338.3168,422.99 -152.016,829.33 15.484,29.12 32.77,58.89 51.969,89.32 l 478.445,276.24 c 20.027,11.54 42.367,17.32 64.711,17.32 22.336,0 44.676,-5.78 64.687,-17.32 l 734.76,-424.2 c 40.03,-23.12 64.7,-65.85 64.7,-112.07 V 864.211 c 0,-46.223 -24.67,-88.926 -64.7,-112.035 z"
         transform="translate(0,2.5000001e-5)"
         clip-rule="evenodd"
         id="path6" />
    </clipPath>
    <linearGradient
       x1="271.435"
       y1="735.56598"
       x2="394.89999"
       y2="389.47699"
       gradientUnits="userSpaceOnUse"
       gradientTransform="matrix(10,0,0,10,-3339.85,-3357.98)"
       spreadMethod="pad"
       id="linearGradient10">
      <stop
         style="stop-opacity:1;stop-color:#45484c"
         offset="0"
         id="stop7" />
      <stop
         style="stop-opacity:1;stop-color:#626266"
         offset="0.551181"
         id="stop8" />
      <stop
         style="stop-opacity:1;stop-color:#ffffff"
         offset="0.992126"
         id="stop9" />
      <stop
         style="stop-opacity:1;stop-color:#ffffff"
         offset="1"
         id="stop10" />
    </linearGradient>
    <clipPath
       clipPathUnits="userSpaceOnUse"
       id="clipPath10">
      <path
         d="m 621.395,838.598 c -0.184,0.074 -0.379,0.172 -0.586,0.269 -2.778,1.266 -7.438,3.426 -13.688,6.516 6.719,-3.309 11.59,-5.57 14.274,-6.785 z M 205.531,1727.39 c 0.016,0.06 0.047,0.15 0.063,0.2 -0.028,-0.07 -0.035,-0.1 -0.063,-0.2 z m 0.36,1.05 c 0.05,0.15 0.082,0.24 0.132,0.39 -0.046,-0.12 -0.085,-0.24 -0.132,-0.39 z m 0.367,1.07 c 0.058,0.17 0.109,0.31 0.172,0.49 -0.063,-0.18 -0.114,-0.32 -0.172,-0.49 z m 0.367,1.04 c 0.063,0.18 0.121,0.34 0.18,0.52 -0.063,-0.18 -0.117,-0.34 -0.18,-0.52 z m 0.371,1.08 c 0.07,0.19 0.133,0.36 0.199,0.55 -0.074,-0.22 -0.125,-0.34 -0.199,-0.55 z m 0.352,0.99 c 0.082,0.24 0.148,0.42 0.23,0.66 -0.086,-0.24 -0.137,-0.39 -0.23,-0.66 z m 0.324,0.92 c 10.371,29.41 22.648,59.6 36.996,90.56 5.738,12.4 11.812,24.91 18.23,37.55 -22.433,-44.23 -40.707,-86.96 -55.226,-128.11 z m 55.246,128.16 c 0.164,0.32 0.324,0.63 0.484,0.95 -0.164,-0.32 -0.32,-0.63 -0.484,-0.95 z m 0.785,1.55 c 0.074,0.13 0.145,0.27 0.219,0.42 -0.074,-0.15 -0.149,-0.29 -0.219,-0.42 z"
         transform="translate(0,2.5000001e-5)"
         clip-rule="evenodd"
         id="path10" />
    </clipPath>
    <linearGradient
       x1="295.07101"
       y1="449.96201"
       x2="476.61499"
       y2="449.96201"
       gradientUnits="userSpaceOnUse"
       gradientTransform="matrix(10,0,0,10,-3339.85,-3357.98)"
       spreadMethod="pad"
       id="linearGradient12">
      <stop
         style="stop-opacity:1;stop-color:#9761b7"
         offset="0"
         id="stop11" />
      <stop
         style="stop-opacity:1;stop-color:#4c2382"
         offset="1"
         id="stop12" />
    </linearGradient>
    <clipPath
       clipPathUnits="userSpaceOnUse"
       id="clipPath12">
      <path
         d="m 869.289,310.641 c -22.336,0 -44.68,5.765 -64.707,17.332 L 69.8516,752.176 C 29.8203,775.285 5.15234,817.988 5.15234,864.215 v 848.405 c 0,46.23 24.66796,88.95 64.69926,112.06 l 256.2854,147.96 c -19.196,-30.42 -36.485,-60.19 -51.973,-89.31 -3.504,-6.59 -6.926,-13.15 -10.242,-19.66 -0.074,-0.15 -0.145,-0.29 -0.219,-0.42 -0.101,-0.21 -0.199,-0.41 -0.301,-0.6 -0.16,-0.32 -0.32,-0.63 -0.484,-0.95 -0.008,-0.02 -0.012,-0.02 -0.02,-0.05 -6.418,-12.64 -12.492,-25.15 -18.23,-37.55 -14.348,-30.96 -26.625,-61.15 -36.996,-90.56 -0.024,-0.07 -0.067,-0.19 -0.094,-0.26 -0.082,-0.24 -0.148,-0.42 -0.23,-0.66 -0.051,-0.14 -0.102,-0.29 -0.153,-0.44 -0.066,-0.19 -0.129,-0.36 -0.199,-0.55 -0.066,-0.2 -0.125,-0.37 -0.191,-0.56 -0.059,-0.18 -0.117,-0.34 -0.18,-0.52 -0.062,-0.16 -0.133,-0.36 -0.195,-0.55 -0.063,-0.18 -0.114,-0.32 -0.172,-0.49 -0.074,-0.22 -0.164,-0.46 -0.235,-0.68 -0.05,-0.15 -0.082,-0.24 -0.132,-0.39 -0.098,-0.26 -0.2,-0.56 -0.297,-0.85 -0.016,-0.05 -0.047,-0.14 -0.063,-0.2 C 83,1372.19 239.551,1131.34 394.82,990.715 483.301,910.586 571.359,863 607.121,845.383 c 6.25,-3.09 10.91,-5.25 13.688,-6.516 1.601,-0.73 2.582,-1.168 2.882,-1.289 l 0.094,-0.047 c 79.356,-45.156 170.613,-67.715 273.785,-67.715 130.95,0 241.08,34.977 330.37,104.899 89.27,69.945 146.79,164.925 172.61,284.965 h -216.67 c -51.94,0 -101.52,-21.54 -137.17,-59.33 -11.48,-12.15 -24.24,-22.65 -38.26,-31.44 -33.251,-20.84 -71.704,-31.24 -115.329,-31.24 -67.465,0 -121.273,24.04 -161.449,72.16 -40.176,48.12 -60.274,112.85 -60.274,194.19 0,80.35 20.098,144.59 60.274,192.71 40.176,48.12 93.984,72.18 161.449,72.18 43.625,0 82.078,-10.43 115.329,-31.25 14.02,-8.8 26.75,-19.28 38.23,-31.43 35.66,-37.79 85.23,-59.35 137.2,-59.35 h 216.67 c -12.13,56.39 -31.26,107.25 -57.38,152.58 179.6,-152.61 298.11,-439 101.97,-976.362 L 933.977,327.973 c -20.012,-11.567 -42.348,-17.332 -64.688,-17.332 z"
         transform="translate(0,2.5000001e-5)"
         clip-rule="evenodd"
         id="path12" />
    </clipPath>
    <linearGradient
       x1="371.513"
       y1="466.125"
       x2="474.039"
       y2="466.125"
       gradientUnits="userSpaceOnUse"
       gradientTransform="matrix(10,0,0,10,-3339.85,-3357.98)"
       spreadMethod="pad"
       id="linearGradient14">
      <stop
         style="stop-opacity:1;stop-color:#9761b7"
         offset="0"
         id="stop13" />
      <stop
         style="stop-opacity:1;stop-color:#582791"
         offset="1"
         id="stop14" />
    </linearGradient>
    <clipPath
       clipPathUnits="userSpaceOnUse"
       id="clipPath14">
      <path
         d="m 1183.88,1159.68 h 216.67 c -25.82,-120.04 -83.34,-215.02 -172.61,-284.965 -89.29,-69.922 -199.42,-104.899 -330.37,-104.899 -103.172,0 -194.433,22.559 -273.785,67.715 l -0.097,0.047 C 544.359,882.711 483.137,945.656 440,1026.49 c -43.141,80.87 -64.723,173.37 -64.723,277.53 0,103.17 21.582,195.19 64.723,276.05 43.164,80.83 104.41,143.82 183.785,188.98 79.352,45.14 170.613,67.69 273.785,67.69 72.207,0 138.07,-10.62 197.62,-31.89 48.44,-17.3 92.7,-41.63 132.75,-73.01 89.27,-69.95 146.79,-164.95 172.61,-284.96 h -216.67 c -51.97,0 -101.54,21.56 -137.2,59.35 -11.48,12.15 -24.21,22.63 -38.23,31.43 -33.251,20.82 -71.704,31.25 -115.329,31.25 -67.465,0 -121.273,-24.06 -161.449,-72.18 -40.176,-48.12 -60.274,-112.36 -60.274,-192.71 0,-81.34 20.098,-146.07 60.274,-194.19 40.176,-48.12 93.984,-72.16 161.449,-72.16 43.625,0 82.078,10.4 115.329,31.24 14.02,8.79 26.78,19.29 38.26,31.44 35.65,37.79 85.23,59.33 137.17,59.33 z"
         transform="translate(0,2.5000001e-5)"
         clip-rule="evenodd"
         id="path14" />
    </clipPath>
    <linearGradient
       x1="366.59799"
       y1="533.104"
       x2="366.65201"
       y2="533.104"
       gradientUnits="userSpaceOnUse"
       gradientTransform="matrix(10,0,0,10,-3339.85,-3357.98)"
       spreadMethod="pad"
       id="linearGradient17">
      <stop
         style="stop-opacity:1;stop-color:#9761b7"
         offset="0"
         id="stop16" />
      <stop
         style="stop-opacity:1;stop-color:#582791"
         offset="1"
         id="stop17" />
    </linearGradient>
    <clipPath
       clipPathUnits="userSpaceOnUse"
       id="clipPath17">
      <path
         d="m 326.672,1973.5 c -0.172,-0.3 -0.363,-0.56 -0.535,-0.86 z"
         transform="translate(0,2.5000001e-5)"
         clip-rule="evenodd"
         id="path17" />
    </clipPath>
    <linearGradient
       x1="479.423"
       y1="398.60101"
       x2="479.47699"
       y2="398.60101"
       gradientUnits="userSpaceOnUse"
       gradientTransform="matrix(10,0,0,10,-3339.85,-3357.98)"
       spreadMethod="pad"
       id="linearGradient19">
      <stop
         style="stop-opacity:1;stop-color:#9761b7"
         offset="0"
         id="stop18" />
      <stop
         style="stop-opacity:1;stop-color:#582791"
         offset="1"
         id="stop19" />
    </linearGradient>
    <clipPath
       clipPathUnits="userSpaceOnUse"
       id="clipPath19">
      <path
         d="m 1454.92,628.734 c -0.17,-0.461 -0.35,-0.921 -0.54,-1.386 z"
         transform="translate(0,2.5000001e-5)"
         clip-rule="evenodd"
         id="path19" />
    </clipPath>
  </defs>
  <sodipodi:namedview
     id="namedview1"
     pagecolor="#ffffff"
     bordercolor="#000000"
     borderopacity="0.25"
     inkscape:showpageshadow="2"
     inkscape:pageopacity="0.0"
     inkscape:pagecheckerboard="0"
     inkscape:deskcolor="#d1d1d1">
    <inkscape:page
       x="0"
       y="0"
       inkscape:label="1"
       id="page1"
       width="254.66667"
       height="302.66666"
       margin="0"
       bleed="0" />
  </sodipodi:namedview>
  <g
     id="g1"
     inkscape:groupmode="layer"
     inkscape:label="1">
    <path
       id="path1"
       d="m 1343.17,1599.46 c 169.37,-162.53 284.71,-444.07 101.96,-975.397 91.57,211.074 139.23,410.087 139.23,557.777 0.03,416.57 -290.76,582.55 -489.17,623.01 48.44,-17.3 92.7,-41.63 132.75,-73 47.33,-37.09 85.74,-81.22 115.23,-132.39"
       style="fill:url(#linearGradient2);fill-opacity:1;fill-rule:nonzero;stroke:none"
       transform="matrix(0.13333333,0,0,-0.13333333,0,302.66667)"
       clip-path="url(#clipPath2)" />
    <path
       id="path3"
       d="m 426.184,1054 c -162.801,154.25 -331.852,427.74 -152.282,828.97 -2.808,-3.9 -9.011,-17.06 -11.363,-21.23 -24.98,-46.43 -43.351,-84.44 -58.476,-131.08 -105.5083,-269.61 -21.145,-558.8 192.121,-743.379 80.597,-69.75 158.777,-118.847 207.504,-142.59 l 17.703,-6.089 c 0.996,-0.442 -142.68,115.019 -181.621,187.988 -4.786,9 -9.329,18.13 -13.586,27.41"
       style="fill:url(#linearGradient4);fill-opacity:1;fill-rule:nonzero;stroke:none"
       transform="matrix(0.13333333,0,0,-0.13333333,0,302.66667)"
       clip-path="url(#clipPath4)" />
    <path
       id="path5"
       d="m 1445.09,623.066 c 87.52,222.36 132.98,409.474 132.98,557.514 0.02,416.57 -281.95,568.72 -482.88,624.27 -59.55,21.28 -125.417,31.89 -197.62,31.89 -103.172,0 -194.433,-22.56 -273.781,-67.69 -79.379,-45.16 -140.625,-108.15 -183.793,-188.98 -43.133,-80.87 -64.715,-172.88 -64.715,-276.05 0,-104.17 21.582,-196.67 64.715,-277.52 43.145,-80.848 104.363,-143.785 183.695,-188.918 -0.257,0.113 -1.043,0.453 -2.3,1.02 1.117,-0.516 1.82,-0.809 2.066,-0.922 -79.324,45.133 -140.543,108.074 -183.687,188.91 -4.786,9 -9.329,18.13 -13.586,27.41 -168.403,152.51 -338.3168,422.99 -152.016,829.33 15.484,29.12 32.77,58.89 51.969,89.32 l 478.445,276.24 c 20.027,11.54 42.367,17.32 64.711,17.32 22.336,0 44.676,-5.78 64.687,-17.32 l 734.76,-424.2 c 40.03,-23.12 64.7,-65.85 64.7,-112.07 V 864.211 c 0,-46.223 -24.67,-88.926 -64.7,-112.035 l -223.65,-129.11"
       style="fill:url(#linearGradient6);fill-opacity:1;fill-rule:nonzero;stroke:none"
       transform="matrix(0.13333333,0,0,-0.13333333,0,302.66667)"
       clip-path="url(#clipPath6)" />
    <path
       id="path7"
       d="m 621.395,838.598 c -0.184,0.074 -0.379,0.172 -0.586,0.269 -2.778,1.266 -7.438,3.426 -13.688,6.516 6.719,-3.309 11.59,-5.57 14.274,-6.785 z M 205.531,1727.39 c 0.016,0.06 0.047,0.15 0.063,0.2 -0.028,-0.07 -0.035,-0.1 -0.063,-0.2 z m 0.36,1.05 c 0.05,0.15 0.082,0.24 0.132,0.39 -0.046,-0.12 -0.085,-0.24 -0.132,-0.39 z m 0.367,1.07 c 0.058,0.17 0.109,0.31 0.172,0.49 -0.063,-0.18 -0.114,-0.32 -0.172,-0.49 z m 0.367,1.04 c 0.063,0.18 0.121,0.34 0.18,0.52 -0.063,-0.18 -0.117,-0.34 -0.18,-0.52 z m 0.371,1.08 c 0.07,0.19 0.133,0.36 0.199,0.55 -0.074,-0.22 -0.125,-0.34 -0.199,-0.55 z m 0.352,0.99 c 0.082,0.24 0.148,0.42 0.23,0.66 -0.086,-0.24 -0.137,-0.39 -0.23,-0.66 z m 0.324,0.92 c 10.371,29.41 22.648,59.6 36.996,90.56 5.738,12.4 11.812,24.91 18.23,37.55 -22.433,-44.23 -40.707,-86.96 -55.226,-128.11 z m 55.246,128.16 c 0.164,0.32 0.324,0.63 0.484,0.95 -0.164,-0.32 -0.32,-0.63 -0.484,-0.95 z m 0.785,1.55 c 0.074,0.13 0.145,0.27 0.219,0.42 -0.074,-0.15 -0.149,-0.29 -0.219,-0.42"
       style="fill:url(#linearGradient10);fill-opacity:1;fill-rule:nonzero;stroke:none"
       transform="matrix(0.13333333,0,0,-0.13333333,0,302.66667)"
       clip-path="url(#clipPath10)" />
    <path
       id="path11"
       d="m 869.289,310.641 c -22.336,0 -44.68,5.765 -64.707,17.332 L 69.8516,752.176 C 29.8203,775.285 5.15234,817.988 5.15234,864.215 v 848.405 c 0,46.23 24.66796,88.95 64.69926,112.06 l 256.2854,147.96 c -19.196,-30.42 -36.485,-60.19 -51.973,-89.31 -3.504,-6.59 -6.926,-13.15 -10.242,-19.66 -0.074,-0.15 -0.145,-0.29 -0.219,-0.42 -0.101,-0.21 -0.199,-0.41 -0.301,-0.6 -0.16,-0.32 -0.32,-0.63 -0.484,-0.95 -0.008,-0.02 -0.012,-0.02 -0.02,-0.05 -6.418,-12.64 -12.492,-25.15 -18.23,-37.55 -14.348,-30.96 -26.625,-61.15 -36.996,-90.56 -0.024,-0.07 -0.067,-0.19 -0.094,-0.26 -0.082,-0.24 -0.148,-0.42 -0.23,-0.66 -0.051,-0.14 -0.102,-0.29 -0.153,-0.44 -0.066,-0.19 -0.129,-0.36 -0.199,-0.55 -0.066,-0.2 -0.125,-0.37 -0.191,-0.56 -0.059,-0.18 -0.117,-0.34 -0.18,-0.52 -0.062,-0.16 -0.133,-0.36 -0.195,-0.55 -0.063,-0.18 -0.114,-0.32 -0.172,-0.49 -0.074,-0.22 -0.164,-0.46 -0.235,-0.68 -0.05,-0.15 -0.082,-0.24 -0.132,-0.39 -0.098,-0.26 -0.2,-0.56 -0.297,-0.85 -0.016,-0.05 -0.047,-0.14 -0.063,-0.2 C 83,1372.19 239.551,1131.34 394.82,990.715 483.301,910.586 571.359,863 607.121,845.383 c 6.25,-3.09 10.91,-5.25 13.688,-6.516 1.601,-0.73 2.582,-1.168 2.882,-1.289 l 0.094,-0.047 c 79.356,-45.156 170.613,-67.715 273.785,-67.715 130.95,0 241.08,34.977 330.37,104.899 89.27,69.945 146.79,164.925 172.61,284.965 h -216.67 c -51.94,0 -101.52,-21.54 -137.17,-59.33 -11.48,-12.15 -24.24,-22.65 -38.26,-31.44 -33.251,-20.84 -71.704,-31.24 -115.329,-31.24 -67.465,0 -121.273,24.04 -161.449,72.16 -40.176,48.12 -60.274,112.85 -60.274,194.19 0,80.35 20.098,144.59 60.274,192.71 40.176,48.12 93.984,72.18 161.449,72.18 43.625,0 82.078,-10.43 115.329,-31.25 14.02,-8.8 26.75,-19.28 38.23,-31.43 35.66,-37.79 85.23,-59.35 137.2,-59.35 h 216.67 c -12.13,56.39 -31.26,107.25 -57.38,152.58 179.6,-152.61 298.11,-439 101.97,-976.362 L 933.977,327.973 c -20.012,-11.567 -42.348,-17.332 -64.688,-17.332"
       style="fill:url(#linearGradient12);fill-opacity:1;fill-rule:nonzero;stroke:none"
       transform="matrix(0.13333333,0,0,-0.13333333,0,302.66667)"
       clip-path="url(#clipPath12)" />
    <path
       id="path13"
       d="m 1183.88,1159.68 h 216.67 c -25.82,-120.04 -83.34,-215.02 -172.61,-284.965 -89.29,-69.922 -199.42,-104.899 -330.37,-104.899 -103.172,0 -194.433,22.559 -273.785,67.715 l -0.097,0.047 C 544.359,882.711 483.137,945.656 440,1026.49 c -43.141,80.87 -64.723,173.37 -64.723,277.53 0,103.17 21.582,195.19 64.723,276.05 43.164,80.83 104.41,143.82 183.785,188.98 79.352,45.14 170.613,67.69 273.785,67.69 72.207,0 138.07,-10.62 197.62,-31.89 48.44,-17.3 92.7,-41.63 132.75,-73.01 89.27,-69.95 146.79,-164.95 172.61,-284.96 h -216.67 c -51.97,0 -101.54,21.56 -137.2,59.35 -11.48,12.15 -24.21,22.63 -38.23,31.43 -33.251,20.82 -71.704,31.25 -115.329,31.25 -67.465,0 -121.273,-24.06 -161.449,-72.18 -40.176,-48.12 -60.274,-112.36 -60.274,-192.71 0,-81.34 20.098,-146.07 60.274,-194.19 40.176,-48.12 93.984,-72.16 161.449,-72.16 43.625,0 82.078,10.4 115.329,31.24 14.02,8.79 26.78,19.29 38.26,31.44 35.65,37.79 85.23,59.33 137.17,59.33"
       style="fill:url(#linearGradient14);fill-opacity:1;fill-rule:nonzero;stroke:none"
       transform="matrix(0.13333333,0,0,-0.13333333,0,302.66667)"
       clip-path="url(#clipPath14)" />
    <path
       id="path15"
       d="m 1046.71,1100.35 c -11.48,-12.15 -24.24,-22.65 -38.26,-31.44 -33.251,-20.84 -71.704,-31.24 -115.329,-31.24 -67.465,0 -121.273,24.04 -161.449,72.16 -40.176,48.12 -60.274,112.85 -60.274,194.19 0,80.35 20.098,144.59 60.274,192.71 40.176,48.12 93.984,72.18 161.449,72.18 43.625,0 82.078,-10.43 115.329,-31.25 14.02,-8.8 26.75,-19.28 38.23,-31.43 35.66,-37.79 85.23,-59.35 137.2,-59.35 h 216.67 c -25.82,120.01 -83.34,215.01 -172.61,284.96 -40.05,31.38 -84.31,55.71 -132.75,73.01 -59.55,21.27 -125.413,31.89 -197.62,31.89 -103.172,0 -194.433,-22.55 -273.785,-67.69 C 544.41,1723.89 483.164,1660.9 440,1580.07 c -43.141,-80.86 -64.723,-172.88 -64.723,-276.05 0,-104.16 21.582,-196.66 64.723,-277.53 43.137,-80.834 104.359,-143.779 183.688,-188.912 l 0.097,-0.047 c 79.352,-45.156 170.613,-67.715 273.785,-67.715 130.95,0 241.08,34.977 330.37,104.899 89.27,69.945 146.79,164.925 172.61,284.965 h -216.67 c -51.94,0 -101.52,-21.54 -137.17,-59.33"
       style="fill:#ffffff;fill-opacity:1;fill-rule:nonzero;stroke:none"
       transform="matrix(0.13333333,0,0,-0.13333333,0,302.66667)" />
    <path
       id="path16"
       d="m 326.672,1973.5 c -0.172,-0.3 -0.363,-0.56 -0.535,-0.86 l 0.535,0.86"
       style="fill:url(#linearGradient17);fill-opacity:1;fill-rule:nonzero;stroke:none"
       transform="matrix(0.13333333,0,0,-0.13333333,0,302.66667)"
       clip-path="url(#clipPath17)" />
    <path
       id="path18"
       d="m 1454.92,628.734 c -0.17,-0.461 -0.35,-0.921 -0.54,-1.386 l 0.54,1.386"
       style="fill:url(#linearGradient19);fill-opacity:1;fill-rule:nonzero;stroke:none"
       transform="matrix(0.13333333,0,0,-0.13333333,0,302.66667)"
       clip-path="url(#clipPath19)" />
    <path
       id="path20"
       d="M 224.57,8.17578 V 44.8828 H 110.691 c -37.859,0 -65.3199,29.1953 -65.3199,68.7892 0,39.887 27.75,67.922 65.3199,67.922 H 224.57 v 36.703 H 110.691 C 52.0234,218.297 8.66797,177.258 8.66797,115.406 8.66797,54.4219 52.0234,8.17578 110.691,8.17578 Z m 176.887,0 c 59.828,0 102.891,46.24612 102.891,107.23022 0,60.989 -42.196,102.891 -102.891,102.891 h -51.16 c -58.668,0 -102.027,-41.039 -102.027,-102.891 0,-60.9841 43.359,-107.23022 102.027,-107.23022 z m -51.16,36.70702 c -37.863,0 -65.32,29.1953 -65.32,68.7892 0,39.887 27.75,67.922 65.32,67.922 h 51.16 c 38.731,0 66.188,-28.324 66.188,-67.922 0,-39.5939 -27.457,-68.7892 -66.188,-68.7892 z M 712.164,8.17578 V 44.8828 H 570.832 V 218.297 H 534.121 V 8.17578 Z m 147.981,0 c 59.253,0 102.316,46.24612 102.316,107.23022 0,60.989 -43.063,102.891 -102.316,102.891 H 738.465 V 8.17578 Z M 774.883,44.8828 V 181.594 h 85.262 c 37.863,0 65.613,-28.324 65.613,-67.922 0,-39.5939 -27.75,-68.7892 -65.613,-68.7892 z M 1239.64,8.17578 1176.34,72.0547 c 27.17,10.4062 43.36,34.9683 43.36,69.6523 0,46.824 -28.32,76.59 -76.31,76.59 H 992.52 V 8.17578 h 36.42 V 181.594 h 114.45 c 25.15,0 40.18,-13.297 40.18,-40.465 0,-27.168 -13.87,-42.1993 -40.18,-42.1993 h -87.57 V 66.5586 h 78.61 l 53.19,-58.38282 z m 282.38,0 -121.1,201.16022 c -4.34,7.234 -9.54,11.852 -17.63,11.852 -8.09,0 -13.59,-4.618 -17.92,-11.852 L 1244.56,8.17578 h 41.9 l 95.38,161.27722 46.83,-78.6132 h -64.46 l -17.34,-29.7695 h 99.43 l 31.5,-52.89452 z m 95.96,0 V 87.9492 l 111.86,130.3478 h -46.83 l -82.08,-96.82 -81.8,96.82 h -49.42 L 1581.27,87.9492 V 8.17578 h 36.71"
       style="fill:#231f20;fill-opacity:1;fill-rule:nonzero;stroke:none"
       transform="matrix(0.13333333,0,0,-0.13333333,0,302.66667)" />
    <text
       id="text20"
       xml:space="preserve"
       transform="matrix(1.3333333,0,0,1.3333333,236.952,274.31307)"><tspan
         id="tspan20"
         style="font-variant:normal;font-weight:normal;font-size:9.05796px;font-family:Arial;writing-mode:lr-tb;fill:#231f20;fill-opacity:1;fill-rule:nonzero;stroke:none"
         x="0"
         y="0">TM</tspan></text>
  </g>
</svg>
